<?xml version="1.0" encoding="UTF-8" standalone="no"?>
<!-- Created with Inkscape (http://www.inkscape.org/) -->

<svg
   xmlns:dc="http://purl.org/dc/elements/1.1/"
   xmlns:cc="http://creativecommons.org/ns#"
   xmlns:rdf="http://www.w3.org/1999/02/22-rdf-syntax-ns#"
   xmlns:svg="http://www.w3.org/2000/svg"
   xmlns="http://www.w3.org/2000/svg"
   xmlns:xlink="http://www.w3.org/1999/xlink"
   xmlns:sodipodi="http://sodipodi.sourceforge.net/DTD/sodipodi-0.dtd"
   xmlns:inkscape="http://www.inkscape.org/namespaces/inkscape"
   width="20"
   height="20"
   viewBox="0 0 20 20"
   id="svg4267"
   version="1.1"
   inkscape:version="0.91 r13725"
   sodipodi:docname="asteroid_small.svg"
   inkscape:export-filename="/Users/kyle/Development/workspace/BaconGameJam10/core/assets/asteroid_small.png"
   inkscape:export-xdpi="90"
   inkscape:export-ydpi="90">
  <defs
     id="defs4269">
    <linearGradient
       inkscape:collect="always"
       id="linearGradient4687">
      <stop
         style="stop-color:#784421;stop-opacity:1;"
         offset="0"
         id="stop4689" />
      <stop
         style="stop-color:#d38d5f;stop-opacity:1"
         offset="1"
         id="stop4691" />
    </linearGradient>
    <linearGradient
       inkscape:collect="always"
       id="linearGradient4679">
      <stop
         style="stop-color:#784421;stop-opacity:1;"
         offset="0"
         id="stop4681" />
      <stop
         style="stop-color:#d38d5f;stop-opacity:1"
         offset="1"
         id="stop4683" />
    </linearGradient>
    <linearGradient
       inkscape:collect="always"
       id="linearGradient4671">
      <stop
         style="stop-color:#784421;stop-opacity:1;"
         offset="0"
         id="stop4673" />
      <stop
         style="stop-color:#d38d5f;stop-opacity:1"
         offset="1"
         id="stop4675" />
    </linearGradient>
    <linearGradient
       inkscape:collect="always"
       id="linearGradient4655">
      <stop
         style="stop-color:#c87137;stop-opacity:1;"
         offset="0"
         id="stop4657" />
      <stop
         style="stop-color:#deaa87;stop-opacity:1"
         offset="1"
         id="stop4659" />
    </linearGradient>
    <linearGradient
       inkscape:collect="always"
       id="linearGradient4647">
      <stop
         style="stop-color:#c87137;stop-opacity:1;"
         offset="0"
         id="stop4649" />
      <stop
         style="stop-color:#deaa87;stop-opacity:1"
         offset="1"
         id="stop4651" />
    </linearGradient>
    <linearGradient
       inkscape:collect="always"
       id="linearGradient4639">
      <stop
         style="stop-color:#c87137;stop-opacity:1;"
         offset="0"
         id="stop4641" />
      <stop
         style="stop-color:#deaa87;stop-opacity:1"
         offset="1"
         id="stop4643" />
    </linearGradient>
    <linearGradient
       inkscape:collect="always"
       id="linearGradient4631">
      <stop
         style="stop-color:#6c5353;stop-opacity:1;"
         offset="0"
         id="stop4633" />
      <stop
         style="stop-color:#c8b7b7;stop-opacity:1"
         offset="1"
         id="stop4635" />
    </linearGradient>
    <linearGradient
       inkscape:collect="always"
       id="linearGradient4617">
      <stop
         style="stop-color:#6c5353;stop-opacity:1;"
         offset="0"
         id="stop4619" />
      <stop
         style="stop-color:#c8b7b7;stop-opacity:1"
         offset="1"
         id="stop4621" />
    </linearGradient>
    <linearGradient
       inkscape:collect="always"
       id="linearGradient4609">
      <stop
         style="stop-color:#6c5353;stop-opacity:1;"
         offset="0"
         id="stop4611" />
      <stop
         style="stop-color:#c8b7b7;stop-opacity:1"
         offset="1"
         id="stop4613" />
    </linearGradient>
    <linearGradient
       inkscape:collect="always"
       id="linearGradient4593">
      <stop
         style="stop-color:#666666;stop-opacity:1;"
         offset="0"
         id="stop4595" />
      <stop
         style="stop-color:#ececec;stop-opacity:1"
         offset="1"
         id="stop4597" />
    </linearGradient>
    <linearGradient
       inkscape:collect="always"
       id="linearGradient4585">
      <stop
         style="stop-color:#666666;stop-opacity:1;"
         offset="0"
         id="stop4587" />
      <stop
         style="stop-color:#f2f2f2;stop-opacity:1"
         offset="1"
         id="stop4589" />
    </linearGradient>
    <linearGradient
       inkscape:collect="always"
       id="linearGradient4577">
      <stop
         style="stop-color:#666666;stop-opacity:1;"
         offset="0"
         id="stop4579" />
      <stop
         style="stop-color:#ececec;stop-opacity:1"
         offset="1"
         id="stop4581" />
    </linearGradient>
    <radialGradient
       inkscape:collect="always"
       xlink:href="#linearGradient4577"
       id="radialGradient4583"
       cx="-67.43959"
       cy="1042.6615"
       fx="-67.43959"
       fy="1042.6615"
       r="10.422101"
       gradientTransform="matrix(1.7395803,-1.2036461,0.58831502,0.85026754,-563.73302,74.588797)"
       gradientUnits="userSpaceOnUse" />
    <radialGradient
       inkscape:collect="always"
       xlink:href="#linearGradient4585"
       id="radialGradient4591"
       cx="-36.303867"
       cy="1034.4838"
       fx="-36.303867"
       fy="1034.4838"
       r="10.422101"
       gradientTransform="matrix(-3.0734818,0.22040045,-0.12281708,-1.7123305,-20.830873,2814.3989)"
       gradientUnits="userSpaceOnUse" />
    <radialGradient
       inkscape:collect="always"
       xlink:href="#linearGradient4593"
       id="radialGradient4599"
       cx="-11.561742"
       cy="1046.3134"
       fx="-11.561742"
       fy="1046.3134"
       r="10.4221"
       gradientTransform="matrix(-1.6895036,-2.1646122,0.86208261,-0.67287052,-933.10388,1724.5473)"
       gradientUnits="userSpaceOnUse" />
    <radialGradient
       inkscape:collect="always"
       xlink:href="#linearGradient4609"
       id="radialGradient4615"
       cx="-67.98304"
       cy="1026.2247"
       fx="-67.98304"
       fy="1026.2247"
       r="10.4221"
       gradientTransform="matrix(1.658561,-1.7966101,0.8140528,0.75150205,-790.63014,132.07421)"
       gradientUnits="userSpaceOnUse" />
    <radialGradient
       inkscape:collect="always"
       xlink:href="#linearGradient4617"
       id="radialGradient4623"
       cx="-34.453991"
       cy="1013.7595"
       fx="-34.453991"
       fy="1013.7595"
       r="10.4221"
       gradientTransform="matrix(-1.9498611,1.3928466,-0.58627993,-0.82074319,492.71238,1894.3494)"
       gradientUnits="userSpaceOnUse" />
    <radialGradient
       inkscape:collect="always"
       xlink:href="#linearGradient4631"
       id="radialGradient4637"
       cx="-11.399209"
       cy="1027.7721"
       fx="-11.399209"
       fy="1027.7721"
       r="10.4221"
       gradientTransform="matrix(-1.4100195,-1.7277245,0.73506307,-0.59989625,-782.94963,1623.6997)"
       gradientUnits="userSpaceOnUse" />
    <radialGradient
       inkscape:collect="always"
       xlink:href="#linearGradient4639"
       id="radialGradient4645"
       cx="-69.262589"
       cy="1003.3378"
       fx="-69.262589"
       fy="1003.3378"
       r="10.4221"
       gradientTransform="matrix(1.4639362,-1.6369291,0.72615252,0.64941173,-696.44287,237.71912)"
       gradientUnits="userSpaceOnUse" />
    <radialGradient
       inkscape:collect="always"
       xlink:href="#linearGradient4647"
       id="radialGradient4653"
       cx="-34.197628"
       cy="992.26013"
       fx="-34.197628"
       fy="992.26013"
       r="10.4221"
       gradientTransform="matrix(-2.0292959,2.106939,-0.69532167,-0.66969811,586.34526,1729.455)"
       gradientUnits="userSpaceOnUse" />
    <radialGradient
       inkscape:collect="always"
       xlink:href="#linearGradient4655"
       id="radialGradient4661"
       cx="-10.655783"
       cy="1005.2981"
       fx="-10.655783"
       fy="1005.2981"
       r="10.4221"
       gradientTransform="matrix(-1.628741,-1.6168544,0.62659035,-0.63119524,-657.92138,1621.8455)"
       gradientUnits="userSpaceOnUse" />
    <radialGradient
       inkscape:collect="always"
       xlink:href="#linearGradient4671"
       id="radialGradient4677"
       cx="-67.156212"
       cy="981.08502"
       fx="-67.156212"
       fy="981.08502"
       r="10.4221"
       gradientTransform="matrix(1.2245287,-1.3553056,0.65992928,0.59625101,-632.36823,304.63132)"
       gradientUnits="userSpaceOnUse" />
    <radialGradient
       inkscape:collect="always"
       xlink:href="#linearGradient4679"
       id="radialGradient4685"
       cx="-35.188862"
       cy="972.41882"
       fx="-35.188862"
       fy="972.41882"
       r="10.4221"
       gradientTransform="matrix(-1.5811873,1.4385185,-0.59851486,-0.6578768,491.17807,1663.291)"
       gradientUnits="userSpaceOnUse" />
    <radialGradient
       inkscape:collect="always"
       xlink:href="#linearGradient4687"
       id="radialGradient4693"
       cx="-12.266541"
       cy="985.23566"
       fx="-12.266541"
       fy="985.23566"
       r="10.4221"
       gradientTransform="matrix(-1.6525184,-1.557416,0.60999602,-0.64724554,-633.52706,1602.9239)"
       gradientUnits="userSpaceOnUse" />
    <radialGradient
       inkscape:collect="always"
       xlink:href="#linearGradient4687"
       id="radialGradient4819"
       gradientUnits="userSpaceOnUse"
       gradientTransform="matrix(-1.2932705,1.3994178,-0.52044115,-0.53135952,514.72386,1578.3322)"
       cx="-12.266541"
       cy="985.23566"
       fx="-12.266541"
       fy="985.23566"
       r="10.4221" />
    <radialGradient
       inkscape:collect="always"
       xlink:href="#linearGradient4671"
       id="radialGradient4249"
       gradientUnits="userSpaceOnUse"
       gradientTransform="matrix(0.88693524,-0.93945766,0.47799169,0.41330352,-404.14791,573.41906)"
       cx="-67.156212"
       cy="981.08502"
       fx="-67.156212"
       fy="981.08502"
       r="10.4221" />
    <radialGradient
       inkscape:collect="always"
       xlink:href="#linearGradient4687"
       id="radialGradient4253"
       gradientUnits="userSpaceOnUse"
       gradientTransform="matrix(-0.94284049,-0.56152334,0.21993282,-0.36928439,-218.71085,1406.2799)"
       cx="-12.266541"
       cy="985.23566"
       fx="-12.266541"
       fy="985.23566"
       r="10.4221" />
  </defs>
  <sodipodi:namedview
     id="base"
     pagecolor="#ffffff"
     bordercolor="#666666"
     borderopacity="1.0"
     inkscape:pageopacity="0.0"
     inkscape:pageshadow="2"
     inkscape:zoom="8.6492158"
     inkscape:cx="-13.812732"
     inkscape:cy="30.017115"
     inkscape:document-units="px"
     inkscape:current-layer="layer1"
     showgrid="false"
     units="px"
     inkscape:window-width="1916"
     inkscape:window-height="1155"
     inkscape:window-x="4"
     inkscape:window-y="1"
     inkscape:window-maximized="1" />
  <metadata
     id="metadata4272">
    <rdf:RDF>
      <cc:Work
         rdf:about="">
        <dc:format>image/svg+xml</dc:format>
        <dc:type
           rdf:resource="http://purl.org/dc/dcmitype/StillImage" />
        <dc:title></dc:title>
      </cc:Work>
    </rdf:RDF>
  </metadata>
  <g
     inkscape:label="Layer 1"
     inkscape:groupmode="layer"
     id="layer1"
     transform="translate(0,-1032.3621)">
    <path
       style="fill:url(#radialGradient4693);fill-opacity:1;stroke:none;stroke-width:1;stroke-linecap:butt;stroke-miterlimit:4;stroke-dasharray:none;stroke-opacity:1"
       d="m -8.3244529,976.5749 c 2e-6,2.3147 -2.9037101,4.41026 -1.9926361,6.73648 0.7823211,1.99747 -3.49684,3.0332 -5.81154,3.0332 -2.314699,0 -6.375762,0.56481 -8.008271,-2.10826 -1.118105,-1.83078 -7.237336,-1.22676 -4.189368,-7.89266 1.31829,-2.88309 1.631924,-5.21958 3.148815,-6.73647 1.516891,-1.51689 5.819578,-2.46965 7.661415,-1.0677 2.430315,1.84988 4.06341,0.93822 5.580301,2.45511 1.516891,1.51689 3.6112821,3.2656 3.6112841,5.5803 z"
       id="path4532"
       inkscape:connector-curvature="0"
       sodipodi:nodetypes="sssssssss" />
    <path
       sodipodi:nodetypes="sssssssss"
       inkscape:connector-curvature="0"
       id="path4555"
       d="m -6.5901915,1018.7752 c 2e-6,2.3147 -2.90371,4.4103 -1.992636,6.7365 0.782321,1.9975 -3.4968395,3.0332 -5.8115395,3.0332 -2.314699,0 -6.375762,0.5648 -8.008271,-2.1082 -1.118105,-1.8308 -7.237337,-1.2268 -4.189368,-7.8927 1.31829,-2.8831 1.631924,-5.2196 3.148815,-6.7365 1.516891,-1.5169 5.819578,-2.4696 7.661415,-1.0677 2.430315,1.8499 4.06341,0.9382 5.580301,2.4551 1.5168905,1.5169 3.6112815,3.2656 3.6112835,5.5803 z"
       style="fill:url(#radialGradient4637);fill-opacity:1;stroke:none;stroke-width:1;stroke-linecap:butt;stroke-miterlimit:4;stroke-dasharray:none;stroke-opacity:1" />
    <path
       style="fill:url(#radialGradient4661);fill-opacity:1;stroke:none;stroke-width:1;stroke-linecap:butt;stroke-miterlimit:4;stroke-dasharray:none;stroke-opacity:1"
       d="m -6.7058091,997.84852 c 2e-6,2.31468 -2.90371,4.41018 -1.992636,6.73648 0.782321,1.9974 -3.4968399,3.0332 -5.8115399,3.0332 -2.314699,0 -6.375762,0.5648 -8.008271,-2.1083 -1.118105,-1.8308 -7.237337,-1.2268 -4.189368,-7.89268 1.31829,-2.883 1.631924,-5.2195 3.148815,-6.7364 1.516891,-1.5169 5.819578,-2.4697 7.661415,-1.0677 2.430315,1.8499 4.06341,0.9382 5.580301,2.4551 1.5168909,1.5169 3.6112819,3.2656 3.6112839,5.5803 z"
       id="path4557"
       inkscape:connector-curvature="0"
       sodipodi:nodetypes="sssssssss" />
    <path
       sodipodi:nodetypes="sssssssss"
       inkscape:connector-curvature="0"
       id="path4559"
       d="m -7.0526614,1038.7772 c 2e-6,2.3147 -2.90371,4.4102 -1.992636,6.7365 0.782321,1.9974 -3.4968406,3.0332 -5.8115406,3.0332 -2.314699,0 -6.375762,0.5648 -8.008271,-2.1083 -1.118105,-1.8308 -7.237337,-1.2268 -4.189368,-7.8927 1.31829,-2.883 1.631924,-5.2195 3.148815,-6.7364 1.516891,-1.5169 5.819578,-2.4698 7.661415,-1.0677 2.430315,1.8499 4.06341,0.9382 5.580301,2.4551 1.5168916,1.5169 3.6112826,3.2656 3.6112846,5.5803 z"
       style="fill:url(#radialGradient4599);fill-opacity:1;stroke:none;stroke-width:1;stroke-linecap:butt;stroke-miterlimit:4;stroke-dasharray:none;stroke-opacity:1" />
    <path
       sodipodi:nodetypes="sssssssss"
       inkscape:connector-curvature="0"
       id="path4561"
       d="m -30.754232,976.5749 c 2e-6,2.3147 -2.90371,4.41026 -1.992636,6.73648 0.782321,1.99747 -3.49684,3.0332 -5.81154,3.0332 -2.314699,0 -6.375762,0.56481 -8.008271,-2.10826 -1.118105,-1.83078 -7.237336,-1.22676 -4.189368,-7.89266 1.31829,-2.88309 1.631924,-5.21958 3.148815,-6.73647 1.516891,-1.51689 5.819578,-2.46965 7.661415,-1.0677 2.430315,1.84988 4.06341,0.93822 5.580301,2.45511 1.516891,1.51689 3.611282,3.2656 3.611284,5.5803 z"
       style="fill:url(#radialGradient4685);fill-opacity:1;stroke:none;stroke-width:1;stroke-linecap:butt;stroke-miterlimit:4;stroke-dasharray:none;stroke-opacity:1" />
    <path
       style="fill:url(#radialGradient4677);fill-opacity:1;stroke:none;stroke-width:1;stroke-linecap:butt;stroke-miterlimit:4;stroke-dasharray:none;stroke-opacity:1"
       d="m -52.952776,976.34367 c 2e-6,2.3147 -2.90371,4.41026 -1.992636,6.73648 0.782321,1.99747 -3.49684,3.0332 -5.81154,3.0332 -2.314699,0 -6.375762,0.56481 -8.008271,-2.10826 -1.118105,-1.83078 -7.237336,-1.22676 -4.189368,-7.89266 1.31829,-2.88309 1.631924,-5.21958 3.148815,-6.73647 1.516891,-1.51689 5.819578,-2.46965 7.661415,-1.0677 2.430315,1.84988 4.06341,0.93822 5.580301,2.45511 1.516891,1.51689 3.611282,3.2656 3.611284,5.5803 z"
       id="path4563"
       inkscape:connector-curvature="0"
       sodipodi:nodetypes="sssssssss"
       inkscape:export-filename="/Users/kyle/Development/workspace/BaconGameJam10/core/assets/asteroid_large.png"
       inkscape:export-xdpi="90"
       inkscape:export-ydpi="90" />
    <path
       sodipodi:nodetypes="sssssssss"
       inkscape:connector-curvature="0"
       id="path4565"
       d="m -29.366823,997.38605 c 2e-6,2.31468 -2.90371,4.41015 -1.992636,6.73645 0.782321,1.9974 -3.49684,3.0332 -5.81154,3.0332 -2.314699,0 -6.375762,0.5648 -8.008271,-2.1083 -1.118105,-1.8308 -7.237337,-1.2268 -4.189368,-7.89265 1.31829,-2.883 1.631924,-5.2195 3.148815,-6.7364 1.516891,-1.5169 5.819578,-2.4697 7.661415,-1.0677 2.430315,1.8499 4.06341,0.9382 5.580301,2.4551 1.516891,1.5169 3.611282,3.2656 3.611284,5.5803 z"
       style="fill:url(#radialGradient4653);fill-opacity:1;stroke:none;stroke-width:1;stroke-linecap:butt;stroke-miterlimit:4;stroke-dasharray:none;stroke-opacity:1" />
    <path
       style="fill:url(#radialGradient4645);fill-opacity:1;stroke:none;stroke-width:1;stroke-linecap:butt;stroke-miterlimit:4;stroke-dasharray:none;stroke-opacity:1"
       d="m -54.10895,996.80796 c 2e-6,2.31468 -2.90371,4.41014 -1.992636,6.73644 0.782321,1.9974 -3.49684,3.0332 -5.81154,3.0332 -2.314699,0 -6.375762,0.5648 -8.008271,-2.1083 -1.118105,-1.8308 -7.237337,-1.2268 -4.189368,-7.89264 1.31829,-2.883 1.631924,-5.2195 3.148815,-6.7364 1.516891,-1.5169 5.819578,-2.4697 7.661415,-1.0677 2.430315,1.8499 4.06341,0.9382 5.580301,2.4551 1.516891,1.5169 3.611282,3.2656 3.611284,5.5803 z"
       id="path4567"
       inkscape:connector-curvature="0"
       sodipodi:nodetypes="sssssssss" />
    <path
       style="fill:url(#radialGradient4623);fill-opacity:1;stroke:none;stroke-width:1;stroke-linecap:butt;stroke-miterlimit:4;stroke-dasharray:none;stroke-opacity:1"
       d="m -29.94491,1018.3127 c 2e-6,2.3147 -2.90371,4.4103 -1.992636,6.7365 0.782321,1.9975 -3.496839,3.0332 -5.811539,3.0332 -2.314699,0 -6.375762,0.5648 -8.008271,-2.1082 -1.118105,-1.8308 -7.237337,-1.2268 -4.189368,-7.8927 1.31829,-2.8831 1.631924,-5.2196 3.148815,-6.7365 1.516891,-1.5169 5.819578,-2.4696 7.661415,-1.0677 2.430315,1.8499 4.06341,0.9382 5.580301,2.4551 1.51689,1.5169 3.611281,3.2656 3.611283,5.5803 z"
       id="path4569"
       inkscape:connector-curvature="0"
       sodipodi:nodetypes="sssssssss" />
    <path
       sodipodi:nodetypes="sssssssss"
       inkscape:connector-curvature="0"
       id="path4571"
       d="m -52.605924,1018.4283 c 2e-6,2.3147 -2.90371,4.4103 -1.992636,6.7365 0.782321,1.9975 -3.496839,3.0332 -5.811539,3.0332 -2.314699,0 -6.375762,0.5648 -8.008271,-2.1082 -1.118105,-1.8308 -7.237337,-1.2268 -4.189368,-7.8927 1.31829,-2.8831 1.631924,-5.2196 3.148815,-6.7365 1.516891,-1.5169 5.819578,-2.4696 7.661415,-1.0677 2.430315,1.8499 4.06341,0.9382 5.580301,2.4551 1.51689,1.5169 3.611281,3.2656 3.611283,5.5803 z"
       style="fill:url(#radialGradient4615);fill-opacity:1;stroke:none;stroke-width:1;stroke-linecap:butt;stroke-miterlimit:4;stroke-dasharray:none;stroke-opacity:1" />
    <path
       style="fill:url(#radialGradient4591);fill-opacity:1;stroke:none;stroke-width:1;stroke-linecap:butt;stroke-miterlimit:4;stroke-dasharray:none;stroke-opacity:1"
       d="m -31.101084,1038.7772 c 2e-6,2.3147 -2.90371,4.4102 -1.992636,6.7365 0.782321,1.9974 -3.496841,3.0332 -5.811541,3.0332 -2.314699,0 -6.375762,0.5648 -8.008271,-2.1083 -1.118105,-1.8308 -7.237337,-1.2268 -4.189368,-7.8927 1.31829,-2.883 1.631924,-5.2195 3.148815,-6.7364 1.516891,-1.5169 5.819578,-2.4698 7.661415,-1.0677 2.430315,1.8499 4.06341,0.9382 5.580301,2.4551 1.516892,1.5169 3.611283,3.2656 3.611285,5.5803 z"
       id="path4573"
       inkscape:connector-curvature="0"
       sodipodi:nodetypes="sssssssss" />
    <path
       sodipodi:nodetypes="sssssssss"
       inkscape:connector-curvature="0"
       id="path4575"
       d="m -53.415246,1038.3147 c 2e-6,2.3147 -2.90371,4.4102 -1.992636,6.7365 0.782321,1.9974 -3.496841,3.0332 -5.811541,3.0332 -2.314699,0 -6.375762,0.5648 -8.008271,-2.1083 -1.118105,-1.8308 -7.237337,-1.2268 -4.189368,-7.8927 1.31829,-2.883 1.631924,-5.2195 3.148815,-6.7364 1.516891,-1.5169 5.819578,-2.4698 7.661415,-1.0677 2.430315,1.8499 4.06341,0.9382 5.580301,2.4551 1.516892,1.5169 3.611283,3.2656 3.611285,5.5803 z"
       style="fill:url(#radialGradient4583);fill-opacity:1;stroke:none;stroke-width:1;stroke-linecap:butt;stroke-miterlimit:4;stroke-dasharray:none;stroke-opacity:1" />
    <path
       sodipodi:nodetypes="sssssssss"
       inkscape:connector-curvature="0"
       id="path4251"
       d="m 10.586165,1045.2599 c 0.242576,1.0919 -0.9076109,2.385 -0.233983,3.3868 0.578464,0.8604 -1.3317318,1.7975 -2.4237829,2.0401 -1.0919816,0.2426 -2.9486185,0.9347 -3.9989616,-0.1553 -0.719369,-0.7464 -3.54294013,0.1799 -2.803683,-3.2843 0.3197043,-1.4983 0.222772,-2.6334 0.7793995,-3.5081 0.5566044,-0.8746 2.4866089,-1.775 3.5025156,-1.3067 1.3404313,0.618 2.0152515,0.016 2.8898836,0.5733 0.8746328,0.5567 2.0459658,1.1621 2.2886118,2.2542 z"
       style="fill:url(#radialGradient4253);fill-opacity:1;stroke:none;stroke-width:1;stroke-linecap:butt;stroke-miterlimit:4;stroke-dasharray:none;stroke-opacity:1" />
    <path
       sodipodi:nodetypes="sssssssss"
       inkscape:connector-curvature="0"
       id="path4817"
       d="m 11.54359,1034.1746 c 1.889886,0.028 3.562692,2.5455 5.473857,1.7917 1.64122,-0.6473 2.430681,3.0378 2.400266,5.0244 -0.03034,1.9864 0.377356,5.4788 -1.826453,6.8475 -1.509444,0.9374 -1.096688,6.1966 -6.499091,3.5 -2.3366847,-1.1663 -4.24017,-1.4638 -5.4587544,-2.784 -1.2185076,-1.3202 -1.9398669,-5.0246 -0.771123,-6.5883 1.5423264,-2.0634 0.8193881,-3.476 2.0777358,-4.7595 1.2585014,-1.2836 2.7137137,-3.0599 4.6035626,-3.0318 z"
       style="fill:url(#radialGradient4819);fill-opacity:1;stroke:none;stroke-width:1;stroke-linecap:butt;stroke-miterlimit:4;stroke-dasharray:none;stroke-opacity:1" />
    <path
       inkscape:export-ydpi="90"
       inkscape:export-xdpi="90"
       inkscape:export-filename="/Users/kyle/Development/workspace/BaconGameJam10/core/assets/asteroid_large.png"
       sodipodi:nodetypes="sssssssss"
       inkscape:connector-curvature="0"
       id="path4247"
       d="m 15.527016,1039.0301 c 1e-6,1.6045 -2.103179,3.0571 -1.443281,4.6695 0.566641,1.3846 -2.532788,2.1026 -4.2093419,2.1026 -1.6765536,0 -4.618012,0.3915 -5.8004505,-1.4614 -0.8098518,-1.269 -5.2420563,-0.8503 -3.0343904,-5.4709 0.9548473,-1.9986 1.1820147,-3.6181 2.2807101,-4.6696 1.0986954,-1.0515 4.2151636,-1.7119 5.54922,-0.7401 1.7602947,1.2823 2.9431577,0.6503 4.0418537,1.7018 1.098695,1.0515 2.615678,2.2636 2.61568,3.8681 z"
       style="fill:url(#radialGradient4249);fill-opacity:1;stroke:none;stroke-width:1;stroke-linecap:butt;stroke-miterlimit:4;stroke-dasharray:none;stroke-opacity:1" />
  </g>
</svg>
