<?xml version="1.0" encoding="UTF-8" standalone="no"?>
<!-- Created with Inkscape (http://www.inkscape.org/) -->

<svg
   xmlns:dc="http://purl.org/dc/elements/1.1/"
   xmlns:cc="http://creativecommons.org/ns#"
   xmlns:rdf="http://www.w3.org/1999/02/22-rdf-syntax-ns#"
   xmlns:svg="http://www.w3.org/2000/svg"
   xmlns="http://www.w3.org/2000/svg"
   xmlns:xlink="http://www.w3.org/1999/xlink"
   xmlns:sodipodi="http://sodipodi.sourceforge.net/DTD/sodipodi-0.dtd"
   xmlns:inkscape="http://www.inkscape.org/namespaces/inkscape"
   width="56"
   height="100"
   viewBox="0 0 56 100"
   id="svg2"
   version="1.1"
   inkscape:version="0.91 r13725"
   sodipodi:docname="player_dead.svg"
   inkscape:export-filename="/Users/sponaas/workspace/BaconGameJam10/core/assets/player_dead.png"
   inkscape:export-xdpi="89.969025"
   inkscape:export-ydpi="89.969025">
  <defs
     id="defs4">
    <radialGradient
       inkscape:collect="always"
       xlink:href="#linearGradient4299"
       id="radialGradient4305"
       cx="-114.58043"
       cy="1030.9813"
       fx="-114.58043"
       fy="1030.9813"
       r="2.8785982"
       gradientTransform="matrix(1.7690996e-6,-0.94986639,0.83146976,1.9328252e-6,132.91845,-137.34578)"
       gradientUnits="userSpaceOnUse" />
    <linearGradient
       inkscape:collect="always"
       id="linearGradient4299">
      <stop
         style="stop-color:#ececec;stop-opacity:1;"
         offset="0"
         id="stop4301" />
      <stop
         style="stop-color:#666666;stop-opacity:1"
         offset="1"
         id="stop4303" />
    </linearGradient>
    <radialGradient
       inkscape:collect="always"
       xlink:href="#linearGradient4313"
       id="radialGradient4319"
       cx="-101.60306"
       cy="1013.6129"
       fx="-101.60306"
       fy="1013.6129"
       r="49.872971"
       gradientTransform="matrix(-0.03332183,0.96339215,-0.27051284,-0.00788541,313.4374,1112.0544)"
       gradientUnits="userSpaceOnUse" />
    <linearGradient
       inkscape:collect="always"
       id="linearGradient4313">
      <stop
         style="stop-color:#cccccc;stop-opacity:1;"
         offset="0"
         id="stop4315" />
      <stop
         style="stop-color:#666666;stop-opacity:1"
         offset="1"
         id="stop4317" />
    </linearGradient>
    <linearGradient
       inkscape:collect="always"
       xlink:href="#linearGradient4388"
       id="linearGradient4394"
       x1="1080.3748"
       y1="-27.536518"
       x2="1084.5297"
       y2="-27.584663"
       gradientUnits="userSpaceOnUse"
       gradientTransform="matrix(1.0407016,0,0,0.98898079,-43.930112,-0.64793494)" />
    <linearGradient
       inkscape:collect="always"
       id="linearGradient4388">
      <stop
         style="stop-color:#cccccc;stop-opacity:1;"
         offset="0"
         id="stop4390" />
      <stop
         style="stop-color:#808080;stop-opacity:1"
         offset="1"
         id="stop4392" />
    </linearGradient>
    <linearGradient
       inkscape:collect="always"
       xlink:href="#linearGradient4255"
       id="linearGradient4261"
       x1="-68.335419"
       y1="21.964956"
       x2="-56.25782"
       y2="21.652065"
       gradientUnits="userSpaceOnUse"
       gradientTransform="matrix(0.00903584,0.93282472,-1.0095054,0.00824176,61.288516,1072.6126)" />
    <linearGradient
       inkscape:collect="always"
       id="linearGradient4255">
      <stop
         style="stop-color:#808080;stop-opacity:1"
         offset="0"
         id="stop4257" />
      <stop
         style="stop-color:#e6e6e6;stop-opacity:0;"
         offset="1"
         id="stop4259" />
    </linearGradient>
    <linearGradient
       inkscape:collect="always"
       xlink:href="#linearGradient4255"
       id="linearGradient4261-1"
       x1="-68.335419"
       y1="21.964956"
       x2="-56.25782"
       y2="21.652065"
       gradientUnits="userSpaceOnUse"
       gradientTransform="matrix(0.00903584,0.93282472,-1.0248514,0.00836704,61.78937,1079.1679)" />
  </defs>
  <sodipodi:namedview
     id="base"
     pagecolor="#ffffff"
     bordercolor="#666666"
     borderopacity="1.0"
     inkscape:pageopacity="0.0"
     inkscape:pageshadow="2"
     inkscape:zoom="127.84"
     inkscape:cx="53.31806"
     inkscape:cy="1.6649743"
     inkscape:document-units="px"
     inkscape:current-layer="layer2"
     showgrid="false"
     inkscape:window-width="1440"
     inkscape:window-height="775"
     inkscape:window-x="0"
     inkscape:window-y="0"
     inkscape:window-maximized="1"
     units="px"
     fit-margin-top="0"
     fit-margin-left="0"
     fit-margin-right="0"
     fit-margin-bottom="0"
     showguides="false" />
  <metadata
     id="metadata7">
    <rdf:RDF>
      <cc:Work
         rdf:about="">
        <dc:format>image/svg+xml</dc:format>
        <dc:type
           rdf:resource="http://purl.org/dc/dcmitype/StillImage" />
        <dc:title />
      </cc:Work>
    </rdf:RDF>
  </metadata>
  <g
     inkscape:label="Cannon"
     inkscape:groupmode="layer"
     id="layer1"
     transform="translate(2.3048898,-988.14265)"
     style="display:inline" />
  <g
     inkscape:groupmode="layer"
     id="layer2"
     inkscape:label="Dude"
     transform="translate(2.4150758,48.945705)"
     style="display:inline">
    <path
       style="fill:#000000;fill-opacity:0;stroke:none;stroke-width:1;stroke-linecap:butt;stroke-miterlimit:4;stroke-dasharray:none;stroke-opacity:1"
       id="path8082"
       d="m 17.089875,-14.948773 c 0.598322,-0.01841 1.179184,0.134584 1.746363,0.308919 0.719142,0.247919 1.434575,0.544025 2.080675,0.948568 0.488814,0.322289 0.93325,0.708577 1.36949,1.097998 0.139491,0.135651 0.290286,0.260407 0.428856,0.396961 0.02154,0.02123 0.08568,0.05183 0.0601,0.06796 -1.662195,1.047803 -1.190681,1.346035 -1.868573,0.737978 -1.445435,-1.105027 -2.996479,-2.062058 -4.562667,-2.984219 -1.470711,-0.882079 -3.036962,-1.582385 -4.568795,-2.347102 -0.879427,-0.441016 -1.727836,-0.938676 -2.5913728,-1.408956 -0.703122,-0.423408 -1.450328,-0.758703 -2.2072325,-1.072231 -3.1444829,-1.204533 -6.4531638,-1.898151 -9.711217,-2.71794 -1.8079804,-0.468527 -3.6009352,-0.993767 -5.3765813,-1.572715 -0.8801469,-0.286971 -1.7179583,-0.56906 -2.5745054,-0.915333 -0.323337,-0.130714 -0.639168,-0.27928 -0.958752,-0.41892 -0.965948,-0.478017 -1.965077,-0.983704 -2.761248,-1.72535 -0.225475,-0.195692 -0.396314,-0.461834 -0.650926,-0.622221 -0.179601,-0.08477 -0.358605,-0.168343 -0.549252,-0.227266 -0.527049,-0.08261 -1.084614,-0.129575 -1.61117,-0.01409 -0.195714,0.04293 -0.384262,0.113702 -0.576394,0.170553 -0.243895,0.122109 -0.506952,0.211761 -0.731685,0.366326 -0.158168,0.108785 0.653066,-0.373779 0.529239,-0.227088 -0.320539,0.379724 -0.786141,0.611054 -1.144212,0.955613 -0.492761,0.474165 -0.96071,0.975175 -1.403697,1.496145 -1.49435,1.757414 -2.024853,2.658233 -3.369705,4.627724 -2.178451,3.517178 -4.094985,7.201385 -5.632142,11.044457 -0.282813,0.707066 -0.566779,1.415191 -0.796454,2.141259 -0.187262,0.591986 -0.30164,1.204604 -0.452459,1.806906 10e-5,0.532737 -0.09607,1.074264 3.01e-4,1.598211 0.346527,1.883906 1.886368,3.263681 3.335364,4.342598 1.4958,1.113767 2.695331,1.723693 4.321749,2.645202 3.499881,1.810716 7.136991,3.343414 10.823338,4.729737 0.370937,0.130871 0.991451,0.364198 1.403403,0.464767 0.129156,0.03153 0.261087,0.07021 0.393839,0.06299 0.08421,-0.0046 0.308848,-0.135227 0.233622,-0.09711 -1.542181,0.781472 -1.560923,1.196565 -1.309896,0.32163 0.01952,-0.196031 0.04598,-0.391495 0.05855,-0.588094 0.03082,-0.482066 0.03871,-1.311326 0.04316,-1.767175 0.0088,-0.899448 0.01655,-1.64191 -0.01993,-2.548124 -0.01979,-0.491665 -0.0579,-0.982422 -0.08684,-1.473632 -0.168562,-2.017017 -0.598864,-3.864888 -1.514804,-5.677878 -0.545476,-1.079703 -0.709645,-1.236552 -1.396244,-2.203772 -1.019136,-1.18756 -0.496885,-0.637128 -1.557368,-1.660151 0,0 1.436858,-0.881504 1.436858,-0.881504 l 0,0 c 1.042517,1.058891 0.525695,0.493367 1.54212,1.704162 0.243447,0.351653 0.505844,0.690917 0.730341,1.05496 0.422812,0.685626 0.968926,1.776201 1.251179,2.520831 0.535266,1.412121 0.787666,2.905236 0.941495,4.400888 0.155801,2.106311 0.2480757,4.220475 0.1951993,6.332836 -0.018631,0.14272 0.051644,0.332492 -0.055892,0.428159 -0.06574,0.05849 -1.293028,1.254274 -1.975598,1.16533 -0.57009,-0.07429 -1.166169,-0.466763 -1.702607,-0.628583 -3.580805,-1.534608 -7.150135,-3.107671 -10.615088,-4.891232 -1.589111,-0.88502 -2.9228,-1.566269 -4.400838,-2.625572 -1.507034,-1.080086 -3.141537,-2.463018 -3.490004,-4.411697 -0.09708,-0.542897 0.01668,-1.102891 0.02502,-1.654336 0.171116,-0.617875 0.306307,-1.246843 0.513349,-1.853623 0.252168,-0.739031 0.560385,-1.457987 0.862337,-2.178112 1.608381,-3.835823 3.538775,-7.529882 5.681005,-11.093415 0.558633,-0.853271 1.093062,-1.722888 1.675899,-2.559813 0.799751,-1.148406 1.8165,-2.472921 2.813546,-3.487898 1.195631,-1.217131 2.696396,-2.089147 4.245516,-2.779357 0.203915,-0.05392 0.404593,-0.122053 0.611745,-0.161756 0.555785,-0.106522 1.159347,-0.07071 1.71029,0.04176 0.202115,0.07341 0.400631,0.154598 0.582316,0.2715 0.240668,0.190948 0.425136,0.441601 0.639116,0.660424 0.74864,0.739551 1.688819,1.267805 2.615363,1.747678 0.3079238,0.143973 0.6119086,0.296692 0.9237721,0.431921 2.5183646,1.092003 5.1797111,1.825244 7.819408,2.553138 0.6643024,0.165458 1.3276413,0.334833 1.9929073,0.496372 2.6524525,0.644065 5.3337283,1.205003 7.912963,2.113933 0.789998,0.289884 1.5862126,0.577333 2.2914576,1.04641 0.839788,0.487173 1.667729,0.995325 2.532763,1.437787 1.518556,0.775168 3.061553,1.506337 4.520734,2.392465 1.581872,0.946442 3.149331,1.917633 4.69045,2.92915 0.741636,0.502627 0.388622,0.15258 -1.275951,1.189307 -0.01807,0.01125 -0.0213,-0.03719 -0.03532,-0.05321 -0.04877,-0.05573 -0.21139,-0.210098 -0.253535,-0.250169 -0.05282,-0.05022 -0.106183,-0.09987 -0.159274,-0.149807 -0.422288,-0.3863 -0.853404,-0.769276 -1.33575,-1.079644 -0.640275,-0.385729 -1.334164,-0.688911 -2.046984,-0.912788 -0.574786,-0.158336 -1.157564,-0.285378 -1.757925,-0.237148 0,0 1.503689,-1.092494 1.503689,-1.092494 z"
       inkscape:connector-curvature="0" />
    <path
       style="fill:#000000;fill-opacity:0;stroke:none;stroke-width:1;stroke-linecap:butt;stroke-miterlimit:4;stroke-dasharray:none;stroke-opacity:1"
       id="path8084"
       d="m -16.392641,-9.283104 c 2.854286,3.145439 5.697594,6.301673 8.5690158,9.431931 3.9237702,4.271276 7.8278966,8.559924 11.661995,12.911992 1.2577827,1.45 0.6709018,0.768637 1.7623353,2.04263 0,0 -1.4330847,0.857774 -1.4330847,0.857774 l 0,0 C 3.1565617,14.641336 3.7015274,15.346522 2.5299264,13.847829 -1.1206868,9.361992 -4.9419384,5.019548 -8.9029153,0.804866 c -2.3700257,-2.512468 -2.2352077,-2.394055 -4.5849357,-4.792669 -0.691654,-0.706044 -2.324969,-2.358626 -3.134088,-3.131018 -0.720791,-0.688074 -0.746124,-0.697273 -1.333331,-1.179767 0,0 1.562629,-0.984516 1.562629,-0.984516 z"
       inkscape:connector-curvature="0" />
    <path
       style="fill:#000000;fill-opacity:0;stroke:none;stroke-width:1;stroke-linecap:butt;stroke-miterlimit:4;stroke-dasharray:none;stroke-opacity:1"
       id="path8088"
       d="m -23.743295,-10.292431 c -0.138168,2.999765 -0.158837,6.003707 -0.178575,9.006107 -0.04109,4.500689 1.09e-4,9.000907 0.105736,13.500336 0.02737,1.217579 0.0678,2.434779 0.111122,3.651871 0,0 -1.520562,0.777136 -1.520562,0.777136 l 0,0 c 0.01279,-1.239538 0.02236,-2.479111 0.01953,-3.718735 -0.0017,-4.517485 0.0046,-9.034954 -0.0076,-13.552406 -0.01947,-2.941719 -0.03801,-5.885187 -0.178575,-8.82413 0,0 1.648944,-0.840179 1.648944,-0.840179 z"
       inkscape:connector-curvature="0" />
    <g
       id="g3463">
      <ellipse
         transform="matrix(0.99774247,-0.06715619,0.06715619,0.99774247,0,0)"
         ry="11.907285"
         rx="5.8928914"
         cy="6.2648444"
         cx="19.432835"
         id="path4236"
         style="fill:#ff6600;fill-opacity:1;stroke:none;stroke-width:1;stroke-linecap:butt;stroke-linejoin:miter;stroke-miterlimit:4;stroke-dasharray:none;stroke-opacity:1" />
      <circle
         transform="matrix(0.38679908,-0.92216402,0.92216402,0.38679908,0,0)"
         r="8.74821"
         cy="9.0024939"
         cx="18.107258"
         id="path4232"
         style="fill:#e6e6e6;fill-opacity:1;stroke:none;stroke-width:1;stroke-linecap:butt;stroke-linejoin:miter;stroke-miterlimit:4;stroke-dasharray:none;stroke-opacity:1" />
      <ellipse
         transform="matrix(0.38679908,-0.92216402,0.92216402,0.38679908,0,0)"
         ry="6.3789029"
         rx="1.5795379"
         cy="29.938601"
         cx="-5.9734201"
         id="path4238"
         style="fill:#d45500;fill-opacity:1;stroke:none;stroke-width:1;stroke-linecap:butt;stroke-linejoin:miter;stroke-miterlimit:4;stroke-dasharray:none;stroke-opacity:1" />
      <ellipse
         inkscape:transform-center-y="2.7111063"
         inkscape:transform-center-x="-5.8358985"
         transform="matrix(-0.90783157,-0.41933499,0.41933499,-0.90783157,0,0)"
         ry="1.5187863"
         rx="7.7189393"
         cy="-5.2706375"
         cx="-42.307861"
         id="path4240"
         style="display:inline;fill:#d45500;fill-opacity:1;stroke:none;stroke-width:1;stroke-linecap:butt;stroke-linejoin:miter;stroke-miterlimit:4;stroke-dasharray:none;stroke-opacity:1" />
      <ellipse
         transform="matrix(0.98982703,-0.142276,0.142276,0.98982703,0,0)"
         ry="1.6402893"
         rx="5.5283828"
         cy="0.64499968"
         cx="23.609781"
         id="path4246"
         style="fill:#d45500;fill-opacity:1;stroke:none;stroke-width:1;stroke-linecap:butt;stroke-linejoin:miter;stroke-miterlimit:4;stroke-dasharray:none;stroke-opacity:1" />
      <ellipse
         inkscape:transform-center-y="3.98389"
         inkscape:transform-center-x="-13.229047"
         transform="matrix(-0.90783157,-0.41933499,0.41933499,-0.90783157,0,0)"
         ry="2.9829545"
         rx="1.2310606"
         cy="-3.3259048"
         cx="-49.553318"
         id="path4257"
         style="fill:#000000;fill-opacity:1;stroke:none;stroke-width:1;stroke-linecap:butt;stroke-linejoin:miter;stroke-miterlimit:4;stroke-dasharray:none;stroke-opacity:1" />
      <g
         transform="matrix(0.5769097,0.81680794,-0.81680794,0.5769097,10.652063,-18.56482)"
         inkscape:transform-center-y="-1.286159"
         inkscape:transform-center-x="-4.3681948"
         id="g4144">
        <ellipse
           style="display:inline;fill:#d45500;fill-opacity:1;stroke:none;stroke-width:1;stroke-linecap:butt;stroke-linejoin:miter;stroke-miterlimit:4;stroke-dasharray:none;stroke-opacity:1"
           id="path4248"
           cx="17.473886"
           cy="18.186831"
           rx="4.374105"
           ry="1.1542777"
           transform="matrix(0.39592439,-0.91828311,0.91828311,0.39592439,0,0)" />
        <circle
           style="fill:#000000;fill-opacity:1;stroke:none;stroke-width:1;stroke-linecap:butt;stroke-linejoin:miter;stroke-miterlimit:4;stroke-dasharray:none;stroke-opacity:1"
           id="path4259"
           cx="13.779783"
           cy="25.705416"
           r="1.6571971"
           transform="matrix(0,-1,1,0,0,0)" />
      </g>
      <path
         sodipodi:nodetypes="sssss"
         inkscape:connector-curvature="0"
         id="path4264"
         d="m 23.037798,-16.339669 c 1.094191,2.800649 0.33714,5.713346 -1.690912,6.505691 -2.028056,0.7923453 -9.161968,2.1719069 -10.256159,-0.628741 -1.0941914,-2.800649 4.265686,-8.72096 6.293742,-9.513304 2.028056,-0.792345 4.559138,0.835705 5.653329,3.636354 z"
         style="fill:#00ffff;fill-opacity:1;stroke:none;stroke-width:1;stroke-linecap:butt;stroke-linejoin:miter;stroke-miterlimit:4;stroke-dasharray:none;stroke-opacity:1" />
      <path
         inkscape:connector-curvature="0"
         d="M 5.3950579,16.671917 C 5.4160374,15.816013 5.4651896,14.955133 5.3814398,14.100745 5.3546581,13.827526 5.305948,13.556903 5.2682021,13.284982 4.9999629,11.605979 4.4468448,9.999682 3.8541974,8.413054 3.4279511,7.389122 3.1084009,6.322804 2.6795954,5.300452 2.6402163,5.222175 2.6008372,5.143898 2.5614581,5.06562 c 0,0 1.5924567,-0.900584 1.5924567,-0.900584 l 0,0 c 0.035971,0.08409 0.071942,0.168172 0.1079127,0.252257 0.3930159,1.042646 0.6937993,2.118702 1.1097859,3.153524 0.5880122,1.601139 1.1317094,3.220692 1.4259553,4.906149 0.043758,0.274074 0.097718,0.546713 0.1312731,0.822222 0.1023167,0.84009 0.08047,1.687694 0.1175382,2.531338 0,0 -1.6513221,0.841391 -1.6513221,0.841391 z"
         id="path8086"
         style="fill:#000000;fill-opacity:0;stroke:none;stroke-width:1;stroke-linecap:butt;stroke-miterlimit:4;stroke-dasharray:none;stroke-opacity:1" />
      <rect
         transform="matrix(-0.72177966,-0.69212291,-0.69212291,0.72177966,0,0)"
         y="-25.554989"
         x="-3.9099028"
         height="7.3842292"
         width="1.1264074"
         id="rect8117"
         style="fill:#000000;fill-opacity:1;stroke:none;stroke-width:1;stroke-linecap:butt;stroke-miterlimit:4;stroke-dasharray:none;stroke-opacity:1" />
      <rect
         style="fill:#000000;fill-opacity:1;stroke:none;stroke-width:1;stroke-linecap:butt;stroke-miterlimit:4;stroke-dasharray:none;stroke-opacity:1"
         id="rect8139"
         width="1.1264074"
         height="7.3842292"
         x="21.420776"
         y="-1.2651075"
         transform="matrix(0.72177966,-0.69212291,0.69212291,0.72177966,0,0)" />
    </g>
    <g
       style="display:inline"
       id="g4411"
       transform="matrix(1.0047104,0,0,0.99960948,-0.21709257,-1036.8376)">
      <ellipse
         transform="matrix(0.00968608,0.99995309,-0.99996667,0.00816388,0,0)"
         ry="2.6070566"
         rx="2.6853535"
         cy="-27.744614"
         cx="991.25726"
         id="path4287"
         style="fill:url(#radialGradient4305);fill-opacity:1;stroke:none" />
      <path
         sodipodi:nodetypes="ccccccc"
         inkscape:connector-curvature="0"
         id="path3358"
         d="m 23.173649,1080.9181 c 7.614617,-26.8868 -13.5988856,-87.45769 14.533038,-89.34918 24.066137,2.02997 9.677707,62.90898 15.137142,88.39028 1.796337,3.4791 -0.451415,4.3918 -0.451415,4.3918 -9.561347,0.1922 -17.709586,0.3456 -27.413064,0.3416 -5.084281,-0.6098 -2.128339,-2.0128 -1.806089,-3.804 z"
         style="fill:url(#radialGradient4319);fill-opacity:1" />
      <g
         id="g4396">
        <ellipse
           style="display:inline;fill:url(#linearGradient4394);fill-opacity:1;fill-rule:evenodd;stroke:none;stroke-width:1px;stroke-linecap:butt;stroke-linejoin:miter;stroke-opacity:1"
           id="path3346-4"
           cx="1084.0939"
           cy="-27.978144"
           rx="4.5178156"
           ry="15.209115"
           transform="matrix(0.00920467,0.99995764,-0.9999631,0.00859087,0,0)" />
        <ellipse
           style="fill:#000000;fill-opacity:1;fill-rule:evenodd;stroke:none;stroke-width:1px;stroke-linecap:butt;stroke-linejoin:miter;stroke-opacity:1"
           id="path3346"
           cx="1084.5847"
           cy="-27.316841"
           rx="3.1422253"
           ry="11.131433"
           transform="matrix(0.00968608,0.99995309,-0.99996667,0.00816388,0,0)" />
      </g>
      <path
         inkscape:connector-curvature="0"
         id="path3346-0-8"
         d="m 51.864482,1014.5437 a 4.1595913,14.640127 89.539898 0 0 -14.680005,-4.0399 4.1595913,14.640127 89.539898 0 0 -14.599524,4.279 4.1595913,14.640127 89.539898 0 0 0.277628,0.7776 3.8294654,15.59458 89.537836 0 1 14.503717,-2.5673 3.8294654,15.59458 89.537836 0 1 14.313236,2.1899 4.1595913,14.640127 89.539898 0 0 0.184948,-0.6393 z"
         style="display:inline;fill:url(#linearGradient4261);fill-opacity:1;fill-rule:evenodd;stroke:none;stroke-width:1px;stroke-linecap:butt;stroke-linejoin:miter;stroke-opacity:1" />
      <path
         inkscape:connector-curvature="0"
         id="path3346-0-8-1"
         d="m 52.230603,1021.1001 a 4.1595913,14.862679 89.539651 0 0 -14.902628,-4.0381 4.1595913,14.862679 89.539651 0 0 -14.822046,4.2808 4.1595913,14.862679 89.539651 0 0 0.281692,0.7775 3.8294654,15.83164 89.537659 0 1 14.724716,-2.5691 3.8294654,15.83164 89.537659 0 1 14.530372,2.1882 4.1595913,14.862679 89.539651 0 0 0.187894,-0.6393 z"
         style="display:inline;fill:url(#linearGradient4261-1);fill-opacity:1;fill-rule:evenodd;stroke:none;stroke-width:1px;stroke-linecap:butt;stroke-linejoin:miter;stroke-opacity:1" />
    </g>
  </g>
</svg>
